<svg xmlns="http://www.w3.org/2000/svg" width="20" height="20" viewBox="0 0 20 20" fill="none">
  <path d="M10 1.25C8.26942 1.25 6.57769 1.76318 5.13876 2.72464C3.69983 3.6861 2.57832 5.05267 1.91606 6.65152C1.25379 8.25037 1.08051 10.0097 1.41813 11.707C1.75575 13.4044 2.58911 14.9635 3.81282 16.1872C5.03653 17.4109 6.59563 18.2442 8.29296 18.5819C9.9903 18.9195 11.7496 18.7462 13.3485 18.0839C14.9473 17.4217 16.3139 16.3002 17.2754 14.8612C18.2368 13.4223 18.75 11.7306 18.75 10C18.75 7.67936 17.8281 5.45376 16.1872 3.81282C14.5462 2.17187 12.3206 1.25 10 1.25ZM10 17.5C8.51664 17.5 7.0666 17.0601 5.83323 16.236C4.59986 15.4119 3.63856 14.2406 3.07091 12.8701C2.50325 11.4997 2.35473 9.99168 2.64411 8.53682C2.9335 7.08197 3.64781 5.74559 4.6967 4.6967C5.7456 3.64781 7.08197 2.9335 8.53683 2.64411C9.99168 2.35472 11.4997 2.50325 12.8701 3.0709C14.2406 3.63856 15.4119 4.59985 16.236 5.83322C17.0601 7.06659 17.5 8.51664 17.5 10C17.5 11.9891 16.7098 13.8968 15.3033 15.3033C13.8968 16.7098 11.9891 17.5 10 17.5Z" fill="#343F56"/>
  <path d="M10 15.625C10.5178 15.625 10.9375 15.2053 10.9375 14.6875C10.9375 14.1697 10.5178 13.75 10 13.75C9.48224 13.75 9.0625 14.1697 9.0625 14.6875C9.0625 15.2053 9.48224 15.625 10 15.625Z" fill="#343F56"/>
  <path d="M10.625 5H9.6875C9.31793 4.99918 8.95183 5.07136 8.61023 5.21241C8.26863 5.35346 7.95826 5.5606 7.69693 5.82192C7.4356 6.08325 7.22846 6.39363 7.08741 6.73523C6.94636 7.07683 6.87418 7.44293 6.875 7.8125V8.125H8.125V7.8125C8.125 7.3981 8.28962 7.00067 8.58265 6.70765C8.87567 6.41462 9.2731 6.25 9.6875 6.25H10.625C11.0394 6.25 11.4368 6.41462 11.7299 6.70765C12.0229 7.00067 12.1875 7.3981 12.1875 7.8125C12.1875 8.2269 12.0229 8.62433 11.7299 8.91735C11.4368 9.21038 11.0394 9.375 10.625 9.375H9.375V12.1875H10.625V10.625C11.3709 10.625 12.0863 10.3287 12.6137 9.80124C13.1412 9.27379 13.4375 8.55842 13.4375 7.8125C13.4375 7.06658 13.1412 6.35121 12.6137 5.82376C12.0863 5.29632 11.3709 5 10.625 5Z" fill="#343F56"/>
</svg>