<svg width="16" height="16" viewBox="0 0 16 16" fill="none" xmlns="http://www.w3.org/2000/svg">
<path d="M7.99997 7.33329C8.36816 7.33329 8.66664 7.63177 8.66664 7.99996V10.6666C8.66664 11.0348 8.36816 11.3333 7.99997 11.3333C7.63178 11.3333 7.3333 11.0348 7.3333 10.6666V7.99996C7.3333 7.63177 7.63178 7.33329 7.99997 7.33329Z" fill="#002E8A"/>
<path d="M7.99997 4.66663C7.63178 4.66663 7.3333 4.9651 7.3333 5.33329C7.3333 5.70148 7.63178 5.99996 7.99997 5.99996H8.00664C8.37483 5.99996 8.6733 5.70148 8.6733 5.33329C8.6733 4.9651 8.37483 4.66663 8.00664 4.66663H7.99997Z" fill="#002E8A"/>
<path fill-rule="evenodd" clip-rule="evenodd" d="M0.666626 7.99996C0.666626 3.94987 3.94987 0.666626 7.99996 0.666626C12.05 0.666626 15.3333 3.94987 15.3333 7.99996C15.3333 12.05 12.05 15.3333 7.99996 15.3333C3.94987 15.3333 0.666626 12.05 0.666626 7.99996ZM7.99996 1.99996C4.68625 1.99996 1.99996 4.68625 1.99996 7.99996C1.99996 11.3137 4.68625 14 7.99996 14C11.3137 14 14 11.3137 14 7.99996C14 4.68625 11.3137 1.99996 7.99996 1.99996Z" fill="#002E8A"/>
</svg>
