<svg width="60" height="20" viewBox="0 0 60 20" fill="#0942B3" xmlns="http://www.w3.org/2000/svg" class="delete-icon">
<path d="M7 8H6V14H7V8Z"/>
<path d="M10 8H9V14H10V8Z"/>
<path d="M2 5V6H3V16C3 16.2652 3.10536 16.5196 3.29289 16.7071C3.48043 16.8946 3.73478 17 4 17H12C12.2652 17 12.5196 16.8946 12.7071 16.7071C12.8946 16.5196 13 16.2652 13 16V6H14V5H2ZM4 16V6H12V16H4Z"/>
<path d="M10 3H6V4H10V3Z"/>
<path d="M24.0994 15H21.0387V5.54545H24.1964C25.1228 5.54545 25.9183 5.73473 26.5831 6.11328C27.2479 6.48875 27.7572 7.02888 28.1112 7.73366C28.4682 8.43537 28.6467 9.27711 28.6467 10.2589C28.6467 11.2437 28.4666 12.0901 28.1065 12.7979C27.7495 13.5058 27.2325 14.0505 26.5554 14.4322C25.8783 14.8107 25.0597 15 24.0994 15ZM22.4652 13.7536H24.021C24.7411 13.7536 25.3397 13.6181 25.8168 13.3473C26.2938 13.0734 26.6508 12.6779 26.8878 12.1609C27.1248 11.6407 27.2433 11.0067 27.2433 10.2589C27.2433 9.51716 27.1248 8.88778 26.8878 8.37074C26.6539 7.85369 26.3046 7.46129 25.8398 7.19354C25.3751 6.92578 24.7981 6.7919 24.1087 6.7919H22.4652V13.7536ZM33.2659 15.1431C32.5672 15.1431 31.9655 14.9938 31.4608 14.6953C30.9592 14.3937 30.5714 13.9705 30.2975 13.4258C30.0266 12.878 29.8912 12.2363 29.8912 11.5007C29.8912 10.7744 30.0266 10.1342 30.2975 9.58026C30.5714 9.02628 30.953 8.59387 31.4423 8.28303C31.9348 7.97218 32.5103 7.81676 33.1689 7.81676C33.569 7.81676 33.9568 7.88293 34.3323 8.01527C34.7077 8.14761 35.0447 8.35535 35.3433 8.63849C35.6418 8.92164 35.8772 9.28942 36.0496 9.74183C36.2219 10.1912 36.3081 10.7375 36.3081 11.3807V11.87H30.6714V10.8359H34.9555C34.9555 10.4728 34.8816 10.1512 34.7339 9.87109C34.5862 9.58795 34.3784 9.36482 34.1107 9.2017C33.846 9.03859 33.5351 8.95703 33.1781 8.95703C32.7904 8.95703 32.4518 9.05244 32.1625 9.24325C31.8763 9.43099 31.6547 9.6772 31.4977 9.98189C31.3439 10.2835 31.2669 10.6113 31.2669 10.9652V11.7731C31.2669 12.247 31.35 12.6502 31.5162 12.9826C31.6855 13.315 31.9209 13.5689 32.2225 13.7443C32.5241 13.9167 32.8765 14.0028 33.2797 14.0028C33.5413 14.0028 33.7798 13.9659 33.9953 13.892C34.2107 13.8151 34.3969 13.7012 34.5539 13.5504C34.7108 13.3996 34.8308 13.2134 34.9139 12.9918L36.2204 13.2273C36.1158 13.612 35.928 13.949 35.6572 14.2383C35.3894 14.5245 35.0524 14.7476 34.6462 14.9077C34.243 15.0646 33.7829 15.1431 33.2659 15.1431ZM39.12 5.54545V15H37.7396V5.54545H39.12ZM43.933 15.1431C43.2344 15.1431 42.6327 14.9938 42.128 14.6953C41.6263 14.3937 41.2386 13.9705 40.9646 13.4258C40.6938 12.878 40.5584 12.2363 40.5584 11.5007C40.5584 10.7744 40.6938 10.1342 40.9646 9.58026C41.2386 9.02628 41.6202 8.59387 42.1095 8.28303C42.602 7.97218 43.1775 7.81676 43.8361 7.81676C44.2362 7.81676 44.624 7.88293 44.9995 8.01527C45.3749 8.14761 45.7119 8.35535 46.0105 8.63849C46.309 8.92164 46.5444 9.28942 46.7168 9.74183C46.8891 10.1912 46.9753 10.7375 46.9753 11.3807V11.87H41.3386V10.8359H45.6227C45.6227 10.4728 45.5488 10.1512 45.4011 9.87109C45.2534 9.58795 45.0456 9.36482 44.7779 9.2017C44.5132 9.03859 44.2023 8.95703 43.8453 8.95703C43.4575 8.95703 43.119 9.05244 42.8297 9.24325C42.5435 9.43099 42.3219 9.6772 42.1649 9.98189C42.0111 10.2835 41.9341 10.6113 41.9341 10.9652V11.7731C41.9341 12.247 42.0172 12.6502 42.1834 12.9826C42.3527 13.315 42.5881 13.5689 42.8897 13.7443C43.1913 13.9167 43.5437 14.0028 43.9469 14.0028C44.2085 14.0028 44.447 13.9659 44.6624 13.892C44.8779 13.8151 45.0641 13.7012 45.221 13.5504C45.378 13.3996 45.498 13.2134 45.5811 12.9918L46.8876 13.2273C46.7829 13.612 46.5952 13.949 46.3244 14.2383C46.0566 14.5245 45.7196 14.7476 45.3134 14.9077C44.9102 15.0646 44.4501 15.1431 43.933 15.1431ZM51.7168 7.90909V9.01705H47.8436V7.90909H51.7168ZM48.8823 6.21023H50.2626V12.918C50.2626 13.1857 50.3027 13.3873 50.3827 13.5227C50.4627 13.6551 50.5658 13.7459 50.692 13.7951C50.8212 13.8413 50.9613 13.8643 51.1121 13.8643C51.2229 13.8643 51.3198 13.8567 51.4029 13.8413C51.486 13.8259 51.5506 13.8136 51.5968 13.8043L51.8461 14.9446C51.7661 14.9754 51.6522 15.0062 51.5045 15.0369C51.3567 15.0708 51.1721 15.0893 50.9505 15.0923C50.5873 15.0985 50.2488 15.0339 49.9349 14.8984C49.621 14.763 49.367 14.5537 49.1732 14.2706C48.9793 13.9875 48.8823 13.632 48.8823 13.2042V6.21023ZM56.1237 15.1431C55.425 15.1431 54.8234 14.9938 54.3186 14.6953C53.817 14.3937 53.4292 13.9705 53.1553 13.4258C52.8844 12.878 52.749 12.2363 52.749 11.5007C52.749 10.7744 52.8844 10.1342 53.1553 9.58026C53.4292 9.02628 53.8108 8.59387 54.3002 8.28303C54.7926 7.97218 55.3681 7.81676 56.0267 7.81676C56.4268 7.81676 56.8146 7.88293 57.1901 8.01527C57.5655 8.14761 57.9026 8.35535 58.2011 8.63849C58.4996 8.92164 58.7351 9.28942 58.9074 9.74183C59.0798 10.1912 59.1659 10.7375 59.1659 11.3807V11.87H53.5292V10.8359H57.8133C57.8133 10.4728 57.7394 10.1512 57.5917 9.87109C57.444 9.58795 57.2362 9.36482 56.9685 9.2017C56.7038 9.03859 56.393 8.95703 56.036 8.95703C55.6482 8.95703 55.3096 9.05244 55.0203 9.24325C54.7341 9.43099 54.5125 9.6772 54.3556 9.98189C54.2017 10.2835 54.1247 10.6113 54.1247 10.9652V11.7731C54.1247 12.247 54.2078 12.6502 54.374 12.9826C54.5433 13.315 54.7787 13.5689 55.0803 13.7443C55.382 13.9167 55.7343 14.0028 56.1375 14.0028C56.3991 14.0028 56.6376 13.9659 56.8531 13.892C57.0685 13.8151 57.2547 13.7012 57.4117 13.5504C57.5686 13.3996 57.6887 13.2134 57.7718 12.9918L59.0782 13.2273C58.9736 13.612 58.7858 13.949 58.515 14.2383C58.2472 14.5245 57.9102 14.7476 57.504 14.9077C57.1008 15.0646 56.6407 15.1431 56.1237 15.1431Z"/>
</svg>
