<svg xmlns="http://www.w3.org/2000/svg" width="20" height="20" viewBox="0 0 20 20" fill="none">
  <path d="M15.5538 7.21024C15.5538 4.14293 13.0673 1.65637 9.99996 1.65637V1.65637C6.93264 1.65637 4.44609 4.14293 4.44609 7.21025V10.1528C4.44609 10.6543 4.34424 11.1505 4.14671 11.6114L3.05762 14.1526H16.9423L15.8532 11.6114C15.6557 11.1505 15.5538 10.6543 15.5538 10.1528V7.21024Z" stroke="#343F56" stroke-width="1.5" stroke-linejoin="round"/>
  <path d="M8.14868 16.4668C8.26299 16.9059 8.51974 17.2946 8.87869 17.5721C9.23764 17.8496 9.67851 18.0001 10.1322 18.0001C10.5859 18.0001 11.0268 17.8496 11.3857 17.5721C11.7447 17.2946 12.0014 16.9059 12.1157 16.4668" stroke="#343F56" stroke-width="1.5" stroke-linecap="round" stroke-linejoin="round"/>
</svg>