<svg width="16" height="16" viewBox="0 0 16 16" fill="none" xmlns="http://www.w3.org/2000/svg">
<g clip-path="url(#clip0_1_7469)">
<ellipse cx="6.5998" cy="3.19997" rx="5.4" ry="2.4" stroke="#525F7A"/>
<path d="M1.19977 6.99995C1.19977 7.94295 2.96186 8.73352 5.33307 8.94462" stroke="#525F7A" stroke-linecap="round"/>
<path d="M1.19977 3.20006V10.4149C1.19977 11.5395 2.96186 12.4823 5.33307 12.7341M11.9998 3.20006V5.80006" stroke="#525F7A" stroke-linecap="round"/>
<path d="M11 9.90002C11.1326 9.90002 11.2597 9.95274 11.3535 10.0465C11.4473 10.1403 11.5 10.2674 11.5 10.4C11.5 10.5326 11.4473 10.6598 11.3535 10.7535C11.2597 10.8473 11.1326 10.9 11 10.9C10.8674 10.9 10.7402 10.8473 10.6465 10.7535C10.5527 10.6598 10.5 10.5326 10.5 10.4C10.5 10.2674 10.5527 10.1403 10.6465 10.0465C10.7402 9.95274 10.8674 9.90002 11 9.90002Z" stroke="#525F7A" stroke-linecap="round" stroke-linejoin="round"/>
<path d="M8.99997 14.4C8.99997 13.8696 9.21068 13.3609 9.58576 12.9858C9.96083 12.6107 10.4695 12.4 11 12.4C11.5304 12.4 12.0391 12.6107 12.4142 12.9858C12.7893 13.3609 13 13.8696 13 14.4" stroke="#525F7A" stroke-linecap="round" stroke-linejoin="round"/>
<path d="M10.9998 15.1999C13.0985 15.1999 14.7998 13.4986 14.7998 11.3999C14.7998 9.3012 13.0985 7.59988 10.9998 7.59988C8.90112 7.59988 7.1998 9.3012 7.1998 11.3999C7.1998 13.4986 8.90112 15.1999 10.9998 15.1999Z" stroke="#525F7A" stroke-linecap="round" stroke-linejoin="round"/>
</g>
<defs>
<clipPath id="clip0_1_7469">
<rect width="16" height="16" fill="white"/>
</clipPath>
</defs>
</svg>
