<svg xmlns="http://www.w3.org/2000/svg" width="20" height="20" viewBox="0 0 20 20" fill="none">
  <path d="M15.0688 3.78413C14.9851 3.09768 14.2466 2.70137 13.6283 3.01108L9.79986 4.92879C8.77502 5.44214 7.66955 5.77548 6.53176 5.91423L3.28793 6.30982C2.19148 6.44353 1.41103 7.44077 1.54474 8.53722L1.84738 11.0188C1.98109 12.1153 2.97833 12.8957 4.07478 12.762L7.31861 12.3664C8.4564 12.2277 9.60959 12.2856 10.7278 12.5376L14.9049 13.479C15.5795 13.631 16.2011 13.0689 16.1174 12.3824L15.0688 3.78413Z" stroke="#343F56" stroke-width="1.5"/>
  <line x1="5.52134" y1="6.03812" x2="6.30819" y2="12.4903" stroke="#343F56" stroke-width="1.5"/>
  <path d="M7.3007 12.3681L8.68341 15.7101C8.9024 16.2394 8.6329 16.8441 8.09288 17.0351L7.83159 17.1276C7.32058 17.3083 6.75858 17.0491 6.56443 16.543L5.06724 12.6405" stroke="#343F56" stroke-width="1.5"/>
  <path d="M17.7393 5.56055C18.3863 6.47232 18.5628 8.26644 18.351 9.51349" stroke="#343F56" stroke-width="1.5" stroke-linecap="round"/>
</svg>